# xmcd
#
# Track frame offsets:
#	150
#	15915
#	40224
#	61756
#	80733
#	92764
#	116129
#	139719
#	158937
#	182766
#	208773
#	228847
#
# Disc length: 3306 seconds
#
# Revision: 0
# Processed by: cddbd v1.5.1PL2 Copyright (c) Steve Scherf et al.
# Submitted via: MusicManager 7.3.0.0 
#
DISCID=980ce80c
DTITLE=AC/DC - The Best CD 2
DYEAR=1900
DGENRE=Rock
TTITLE0=Highway To Hell
TTITLE1=Whole Lotta Rosie
TTITLE2=Sin City
TTITLE3=Dirty Deeds Done Dirt Cheap
TTITLE4=Big Balls
TTITLE5=Walk All Over You
TTITLE6=Hells Bells
TTITLE7=Back In Black
TTITLE8=It's A Long Way To The Top
TTITLE9=For Those About To Rock
TTITLE10=Touch To Much
TTITLE11=Rock and Roll Ain't Noise Pollution
EXTD=
EXTT0=
EXTT1=
EXTT2=
EXTT3=
EXTT4=
EXTT5=
EXTT6=
EXTT7=
EXTT8=
EXTT9=
EXTT10=
EXTT11=
PLAYORDER=
